<svg width="24" height="24" viewBox="0 0 24 24" fill="none" xmlns="http://www.w3.org/2000/svg">
<path d="M11.5464 2C13.5478 2 15.4673 2.79506 16.8825 4.21028C18.2977 5.62551 19.0928 7.54496 19.0928 9.54638C19.0928 12.7678 14.5851 18.8972 12.5375 21.5166C12.4198 21.6672 12.2695 21.789 12.0977 21.8727C11.926 21.9565 11.7374 22 11.5464 22C11.3553 22 11.1668 21.9565 10.995 21.8727C10.8233 21.789 10.6729 21.6672 10.5553 21.5166C8.50771 18.8989 4 12.7678 4 9.54638C4 7.54496 4.79506 5.62551 6.21028 4.21028C7.62551 2.79506 9.54496 2 11.5464 2V2Z" stroke="#E0E0E0" stroke-width="2" stroke-linecap="round" stroke-linejoin="round"/>
<path d="M11.5468 8.91748C11.4225 8.91748 11.3009 8.95436 11.1975 9.02346C11.094 9.09256 11.0134 9.19078 10.9658 9.30569C10.9182 9.4206 10.9058 9.54704 10.9301 9.66903C10.9543 9.79102 11.0142 9.90307 11.1022 9.99102C11.1901 10.079 11.3022 10.1389 11.4241 10.1631C11.5461 10.1874 11.6726 10.1749 11.7875 10.1273C11.9024 10.0797 12.0006 9.99914 12.0697 9.89572C12.1388 9.79231 12.1757 9.67072 12.1757 9.54635C12.1757 9.37956 12.1094 9.21961 11.9915 9.10167C11.8736 8.98374 11.7136 8.91748 11.5468 8.91748Z" stroke="#E0E0E0" stroke-width="2" stroke-linecap="round" stroke-linejoin="round"/>
</svg>
