<svg width="24" height="24" viewBox="0 0 24 24" fill="none" xmlns="http://www.w3.org/2000/svg">
<path d="M11.5463 8.91754C11.422 8.91754 11.3004 8.95442 11.197 9.02352C11.0936 9.09263 11.0129 9.19084 10.9653 9.30575C10.9178 9.42066 10.9053 9.5471 10.9296 9.66909C10.9538 9.79108 11.0137 9.90313 11.1017 9.99108C11.1896 10.079 11.3017 10.1389 11.4237 10.1632C11.5456 10.1875 11.6721 10.175 11.787 10.1274C11.9019 10.0798 12.0001 9.9992 12.0692 9.89579C12.1383 9.79237 12.1752 9.67078 12.1752 9.54641C12.1752 9.37962 12.109 9.21967 11.991 9.10173C11.8731 8.9838 11.7131 8.91754 11.5463 8.91754Z" stroke="#0E0841" stroke-width="2" stroke-linecap="round" stroke-linejoin="round"/>
<path d="M11.5464 2C13.5478 2 15.4673 2.79506 16.8825 4.21028C18.2977 5.62551 19.0928 7.54496 19.0928 9.54638C19.0928 12.7678 14.5851 18.8972 12.5375 21.5166C12.4198 21.6672 12.2695 21.789 12.0977 21.8727C11.926 21.9565 11.7374 22 11.5464 22C11.3553 22 11.1668 21.9565 10.995 21.8727C10.8233 21.789 10.6729 21.6672 10.5553 21.5166C8.50771 18.8989 4 12.7678 4 9.54638C4 7.54496 4.79506 5.62551 6.21028 4.21028C7.62551 2.79506 9.54496 2 11.5464 2V2Z" stroke="#0E0841" stroke-width="2" stroke-linecap="round" stroke-linejoin="round"/>
</svg>
