<svg width="24" height="24" viewBox="0 0 24 24" fill="none" xmlns="http://www.w3.org/2000/svg">
<path d="M23.25 8.99976V4.64976C23.2501 4.34992 23.1602 4.05694 22.9922 3.80863C22.8241 3.56033 22.5854 3.36811 22.307 3.25676L16.307 0.856762C15.9494 0.713762 15.5506 0.713762 15.193 0.856762L8.80701 3.41176C8.44944 3.55476 8.05058 3.55476 7.69301 3.41176L1.77901 1.04576C1.6649 1.00003 1.5413 0.983048 1.41909 0.99631C1.29687 1.00957 1.17979 1.05267 1.07815 1.12182C0.97651 1.19096 0.893422 1.28403 0.836202 1.39283C0.778981 1.50163 0.749382 1.62283 0.75001 1.74576V16.1188C0.74996 16.4186 0.839775 16.7116 1.00786 16.9599C1.17595 17.2082 1.4146 17.4004 1.69301 17.5118L7.69301 19.9118C8.05058 20.0548 8.44944 20.0548 8.80701 19.9118L11.688 18.7588" stroke="white" stroke-width="1.5" stroke-linecap="round" stroke-linejoin="round"/>
<path d="M8.25 3.51855V20.0186" stroke="white" stroke-width="1.5" stroke-linecap="round" stroke-linejoin="round"/>
<path d="M15.75 0.75V8.25" stroke="white" stroke-width="1.5" stroke-linecap="round" stroke-linejoin="round"/>
<path d="M18.75 15.4487C18.8495 15.4487 18.9448 15.4882 19.0152 15.5586C19.0855 15.6289 19.125 15.7243 19.125 15.8237" stroke="white" stroke-width="1.5" stroke-linecap="round" stroke-linejoin="round"/>
<path d="M18.375 15.8237C18.375 15.7243 18.4145 15.6289 18.4848 15.5586C18.5552 15.4882 18.6505 15.4487 18.75 15.4487" stroke="white" stroke-width="1.5" stroke-linecap="round" stroke-linejoin="round"/>
<path d="M18.75 16.1997C18.6505 16.1997 18.5552 16.1602 18.4848 16.0899C18.4145 16.0195 18.375 15.9242 18.375 15.8247" stroke="white" stroke-width="1.5" stroke-linecap="round" stroke-linejoin="round"/>
<path d="M19.125 15.8237C19.125 15.9232 19.0855 16.0186 19.0152 16.0889C18.9448 16.1592 18.8495 16.1987 18.75 16.1987" stroke="white" stroke-width="1.5" stroke-linecap="round" stroke-linejoin="round"/>
<path d="M18.75 11.3237C19.9435 11.3237 21.0881 11.7978 21.932 12.6417C22.7759 13.4857 23.25 14.6303 23.25 15.8237C23.25 17.7447 20.562 21.3997 19.341 22.9617C19.2709 23.0515 19.1812 23.1241 19.0788 23.1741C18.9764 23.224 18.8639 23.25 18.75 23.25C18.6361 23.25 18.5236 23.224 18.4212 23.1741C18.3188 23.1241 18.2291 23.0515 18.159 22.9617C16.938 21.4007 14.25 17.7447 14.25 15.8237C14.25 14.6303 14.7241 13.4857 15.568 12.6417C16.4119 11.7978 17.5565 11.3237 18.75 11.3237V11.3237Z" stroke="white" stroke-width="1.5" stroke-linecap="round" stroke-linejoin="round"/>
</svg>
