<svg width="33" height="30" viewBox="0 0 33 30" fill="none" xmlns="http://www.w3.org/2000/svg">
<path d="M25.7295 10.3333L16.7506 1.33325L7.77441 10.3333H12.7606V19.3333C12.7606 19.5985 12.8657 19.8528 13.0528 20.0404C13.2398 20.2279 13.4936 20.3333 13.7581 20.3333H19.7432C20.0077 20.3333 20.2614 20.2279 20.4485 20.0404C20.6356 19.8528 20.7407 19.5985 20.7407 19.3333V10.3333H25.7295Z" stroke="#009CA9" stroke-width="2" stroke-linecap="round" stroke-linejoin="round"/>
<path d="M31.7147 22.3333V26.3333C31.7147 26.8637 31.5046 27.3724 31.1304 27.7475C30.7563 28.1225 30.2488 28.3333 29.7197 28.3333H3.78456C3.25545 28.3333 2.74801 28.1225 2.37388 27.7475C1.99974 27.3724 1.78955 26.8637 1.78955 26.3333V22.3333" stroke="#009CA9" stroke-width="2" stroke-linecap="round" stroke-linejoin="round"/>
</svg>
