<svg width="24" height="24" viewBox="0 0 24 24" fill="none" xmlns="http://www.w3.org/2000/svg">
<path d="M16.2579 20.6377C16.2579 20.8476 16.2095 21.0546 16.1163 21.2427C16.0231 21.4307 15.8877 21.5947 15.7207 21.7218C15.5537 21.8489 15.3596 21.9357 15.1535 21.9754C14.9474 22.0151 14.735 22.0066 14.5327 21.9507L4.99879 19.3021C4.71221 19.2228 4.45944 19.0519 4.2791 18.8154C4.09875 18.579 4.00073 18.2901 4 17.9927V3.36226C3.99996 3.15239 4.04841 2.94535 4.14159 2.75729C4.23477 2.56924 4.37014 2.40526 4.53715 2.27816C4.70416 2.15106 4.89828 2.06427 5.10436 2.02457C5.31044 1.98487 5.52291 1.99334 5.72518 2.0493L15.2591 5.1283C15.5461 5.20772 15.7992 5.37903 15.9796 5.616C16.16 5.85297 16.2578 6.14253 16.2579 6.44035V20.6377Z" stroke="#E0E0E0" stroke-width="2" stroke-linecap="round" stroke-linejoin="round"/>
<path d="M5.36194 2.00026H18.9818C19.343 2.00026 19.6895 2.14375 19.9449 2.39918C20.2003 2.6546 20.3438 3.00103 20.3438 3.36225V17.6631C20.3438 18.0243 20.2003 18.3708 19.9449 18.6262C19.6895 18.8816 19.343 19.0251 18.9818 19.0251H16.2578" stroke="#E0E0E0" stroke-width="2" stroke-linecap="round" stroke-linejoin="round"/>
</svg>
