<svg width="24" height="24" viewBox="0 0 24 24" fill="none" xmlns="http://www.w3.org/2000/svg">
<path d="M12.0004 20.4983L3.47805 11.6098C2.72905 10.8614 2.23469 9.89612 2.0651 8.85095C1.8955 7.80578 2.05928 6.73375 2.5332 5.78689C2.89057 5.07236 3.41261 4.45297 4.05629 3.97975C4.69998 3.50653 5.4469 3.19303 6.23551 3.06509C7.02411 2.93714 7.83184 2.9984 8.59212 3.24383C9.35241 3.48926 10.0435 3.91183 10.6084 4.47672L12.0004 5.86778L13.3923 4.47672C13.9573 3.91183 14.6484 3.48926 15.4087 3.24383C16.1689 2.9984 16.9767 2.93714 17.7653 3.06509C18.5539 3.19303 19.3008 3.50653 19.9445 3.97975C20.5882 4.45297 21.1102 5.07236 21.4676 5.78689C21.9409 6.73338 22.1044 7.80478 21.935 8.84935C21.7655 9.89393 21.2718 10.8587 20.5236 11.6071L12.0004 20.4983Z" stroke="#0E0841" stroke-width="2" stroke-linecap="round" stroke-linejoin="round"/>
</svg>
