<svg width="24" height="24" viewBox="0 0 24 24" fill="none" xmlns="http://www.w3.org/2000/svg">
<g clip-path="url(#clip0)">
<g filter="url(#filter0_d)">
<path fill-rule="evenodd" clip-rule="evenodd" d="M11.9011 23C12.4846 23 13.0442 22.7682 13.4567 22.3556C13.8693 21.9431 14.1011 21.3835 14.1011 20.8H9.7011C9.7011 21.3835 9.93289 21.9431 10.3455 22.3556C10.758 22.7682 11.3176 23 11.9011 23ZM11.9011 1C15.6862 1 19.4713 4.8819 19.6011 8.3667V12.3663C19.6011 12.3663 21.8011 13.65 21.8011 15.3055C21.8011 17.5528 20.3271 18.6 18.5088 18.6H5.2923C3.4883 18.6 2 17.5 2 15.3055V14.7456C2 14.1384 2.4235 13.4036 2.946 13.0989L4.2 12.3674V8.3678C4.3298 4.883 8.1149 1.0011 11.9 1.0011L11.9011 1ZM11.9011 3.2C9.3964 3.2 6.4891 6.0479 6.4011 8.3667V13.6302L5.3099 14.2671L4.0559 14.9986C4.2088 14.9095 4.2011 14.9216 4.2011 14.7445V15.3044C4.2011 16.1063 4.519 16.3989 5.2934 16.3989H18.5099C19.3184 16.3989 19.6022 16.1404 19.6022 15.3044C19.6022 15.3022 19.4757 15.0866 19.1787 14.8017C18.9697 14.5996 18.74 14.4201 18.4934 14.266L17.4022 13.6291V12.3652L17.4033 8.447C17.3142 6.0457 14.4069 3.1989 11.9022 3.1989L11.9011 3.2Z" fill="white"/>
</g>
</g>
<defs>
<filter id="filter0_d" x="-18" y="-18" width="59.8011" height="62" filterUnits="userSpaceOnUse" color-interpolation-filters="sRGB">
<feFlood flood-opacity="0" result="BackgroundImageFix"/>
<feColorMatrix in="SourceAlpha" type="matrix" values="0 0 0 0 0 0 0 0 0 0 0 0 0 0 0 0 0 0 127 0"/>
<feOffset dy="1"/>
<feGaussianBlur stdDeviation="10"/>
<feColorMatrix type="matrix" values="0 0 0 0 0 0 0 0 0 0 0 0 0 0 0 0 0 0 0.1 0"/>
<feBlend mode="normal" in2="BackgroundImageFix" result="effect1_dropShadow"/>
<feBlend mode="normal" in="SourceGraphic" in2="effect1_dropShadow" result="shape"/>
</filter>
<clipPath id="clip0">
<path d="M0 0H24V24H0V0Z" fill="white"/>
</clipPath>
</defs>
</svg>
